<svg width="35" height="35" viewBox="0 0 35 35" fill="none" xmlns="http://www.w3.org/2000/svg">
    <path d="M35 17.5C35 27.165 27.165 35 17.5 35C7.83502 35 0 27.165 0 17.5C0 7.83502 7.83502 0 17.5 0C27.165 0 35 7.83502 35 17.5Z"
          fill="#D279FC"/>
    <path d="M15.3125 16.7969C16.5234 16.1719 17.1875 15.2734 17.1875 13.9062C17.1875 11.1328 15.1172 10.4688 12.7734 10.4688H6.25V24.2969H12.9297C15.4688 24.2969 17.8125 23.0859 17.8125 20.2734C17.8125 18.5547 16.9922 17.2656 15.3125 16.7969ZM9.25781 12.8125H12.1484C13.2422 12.8125 14.2188 13.125 14.2188 14.4141C14.2188 15.5859 13.4375 16.0547 12.3438 16.0547H9.25781V12.8125ZM12.5391 21.9531H9.25781V18.125H12.5781C13.9453 18.125 14.7656 18.7109 14.7656 20.1172C14.7656 21.5234 13.75 21.9531 12.5391 21.9531ZM26.5234 12.5391H20.9375V11.1719H26.5234V12.5391ZM28.75 19.4531C28.75 16.4844 26.9922 13.9844 23.8672 13.9844C20.7812 13.9844 18.7109 16.2891 18.7109 19.2969C18.7109 22.4219 20.7031 24.5703 23.8672 24.5703C26.25 24.5703 27.8125 23.4766 28.5547 21.2109H26.1328C25.8594 22.0703 24.7656 22.5 23.9453 22.5C22.3438 22.5 21.4844 21.5625 21.4844 19.9609H28.7109C28.7109 19.8047 28.75 19.6094 28.75 19.4531ZM21.4844 18.2031C21.5625 16.9141 22.4609 16.0938 23.75 16.0938C25.1562 16.0938 25.8594 16.875 25.9766 18.2031H21.4844Z"
          fill="white"/>
</svg>
