<svg width="35" height="35" viewBox="0 0 35 35" fill="none" xmlns="http://www.w3.org/2000/svg">
    <path d="M35 17.5C35 27.165 27.165 35 17.5 35C7.83502 35 0 27.165 0 17.5C0 7.83502 7.83502 0 17.5 0C27.165 0 35 7.83502 35 17.5Z"
          fill="#3698F3"/>
    <path d="M25.4688 10.2344C25.4688 10.2344 25.4688 10.2344 25.4297 10.2344C23.9453 9.53125 22.3828 9.0625 20.7812 8.78906C20.7422 8.75 20.7031 8.78906 20.7031 8.78906C20.4688 9.17969 20.2734 9.60938 20.1172 10C18.3594 9.72656 16.6016 9.72656 14.8438 10C14.6875 9.60938 14.4922 9.17969 14.2578 8.78906C14.2578 8.78906 14.2188 8.75 14.1797 8.78906C12.5781 9.0625 11.0156 9.53125 9.53125 10.2344C9.49219 10.2344 9.49219 10.2344 9.49219 10.2344C6.52344 14.6875 5.70312 19.0234 6.09375 23.3203C6.09375 23.3203 6.09375 23.3594 6.13281 23.3594C7.85156 24.6484 9.80469 25.625 11.875 26.25C11.875 26.2891 11.9141 26.25 11.9531 26.25C12.3828 25.625 12.7734 25 13.125 24.3359C13.125 24.2969 13.125 24.2578 13.0859 24.2188C12.4609 23.9844 11.8359 23.7109 11.2891 23.3594C11.25 23.3594 11.2109 23.2812 11.2891 23.2422C11.4062 23.1641 11.5234 23.0859 11.6406 22.9688C11.6406 22.9688 11.6797 22.9688 11.7188 22.9688C15.4688 24.6875 19.5312 24.6875 23.2422 22.9688C23.2812 22.9688 23.2812 22.9688 23.3203 22.9688C23.4375 23.0859 23.5547 23.1641 23.6719 23.2422C23.7109 23.2812 23.7109 23.3594 23.6719 23.3594C23.0859 23.7109 22.5 23.9844 21.875 24.2188C21.8359 24.2578 21.8359 24.2969 21.8359 24.3359C22.1875 25 22.5781 25.625 23.0078 26.25C23.0469 26.25 23.0469 26.2891 23.0859 26.25C25.1562 25.625 27.1094 24.6484 28.8281 23.3594C28.8672 23.3594 28.8672 23.3203 28.8672 23.3203C29.3359 18.3594 28.0469 14.0625 25.4688 10.2344ZM13.6719 20.7031C12.5391 20.7031 11.6016 19.6484 11.6016 18.3984C11.6016 17.1094 12.5391 16.0938 13.6719 16.0938C14.8438 16.0938 15.7422 17.1094 15.7422 18.3984C15.7422 19.6484 14.8047 20.7031 13.6719 20.7031ZM21.2891 20.7031C20.1562 20.7031 19.2578 19.6484 19.2578 18.3984C19.2578 17.1094 20.1562 16.0938 21.2891 16.0938C22.4609 16.0938 23.3984 17.1094 23.3594 18.3984C23.3594 19.6484 22.4609 20.7031 21.2891 20.7031Z"
          fill="white"/>
</svg>
