<svg width="35" height="35" viewBox="0 0 35 35" fill="none" xmlns="http://www.w3.org/2000/svg">
    <path d="M35 17.5C35 27.165 27.165 35 17.5 35C7.83502 35 0 27.165 0 17.5C0 7.83502 7.83502 0 17.5 0C27.165 0 35 7.83502 35 17.5Z"
          fill="#438CFA"/>
    <path d="M27.1875 17.5C27.1875 12.1484 22.8516 7.8125 17.5 7.8125C12.1484 7.8125 7.8125 12.1484 7.8125 17.5C7.8125 22.3438 11.3281 26.3672 15.9766 27.0703V20.3125H13.5156V17.5H15.9766V15.3906C15.9766 12.9688 17.4219 11.6016 19.6094 11.6016C20.7031 11.6016 21.7969 11.7969 21.7969 11.7969V14.1797H20.5859C19.375 14.1797 18.9844 14.9219 18.9844 15.7031V17.5H21.6797L21.25 20.3125H18.9844V27.0703C23.6328 26.3672 27.1875 22.3438 27.1875 17.5Z"
          fill="white"/>
</svg>
