<svg width="35" height="35" viewBox="0 0 35 35" fill="none" xmlns="http://www.w3.org/2000/svg">
    <path d="M35 17.5C35 27.165 27.165 35 17.5 35C7.83502 35 0 27.165 0 17.5C0 7.83502 7.83502 0 17.5 0C27.165 0 35 7.83502 35 17.5Z"
          fill="#646464"/>
    <path d="M14.2578 23.0469C14.2578 23.125 14.1797 23.1641 14.0625 23.1641C13.9453 23.2031 13.8672 23.125 13.8672 23.0469C13.8672 22.9688 13.9453 22.8906 14.0625 22.8906C14.1797 22.8906 14.2578 22.9688 14.2578 23.0469ZM13.0469 22.8516C13.0469 22.9297 13.125 23.0469 13.2422 23.0469C13.3203 23.0859 13.4375 23.0469 13.4766 22.9688C13.4766 22.8906 13.4375 22.8125 13.3203 22.7734C13.2031 22.7344 13.0859 22.7734 13.0469 22.8516ZM14.8047 22.8125C14.6875 22.8125 14.6094 22.8906 14.6094 23.0078C14.6094 23.0859 14.7266 23.125 14.8438 23.0859C14.9609 23.0469 15.0391 23.0078 15 22.9297C15 22.8516 14.8828 22.7734 14.8047 22.8125ZM17.3438 7.8125C11.9531 7.8125 7.8125 11.9531 7.8125 17.3438C7.8125 21.6797 10.5078 25.3906 14.4141 26.7188C14.9219 26.7969 15.0781 26.4844 15.0781 26.25C15.0781 25.9766 15.0781 24.6484 15.0781 23.8281C15.0781 23.8281 12.3438 24.4141 11.7578 22.6562C11.7578 22.6562 11.3281 21.5234 10.7031 21.25C10.7031 21.25 9.80469 20.625 10.7422 20.625C10.7422 20.625 11.7188 20.7031 12.2656 21.6406C13.125 23.1641 14.5312 22.7344 15.1172 22.4609C15.1953 21.8359 15.4297 21.4062 15.7422 21.1328C13.5547 20.8984 11.3281 20.5859 11.3281 16.8359C11.3281 15.7422 11.6406 15.2344 12.2656 14.5312C12.1484 14.2578 11.8359 13.2422 12.3828 11.875C13.1641 11.6406 15.0781 12.9297 15.0781 12.9297C15.8594 12.6953 16.6797 12.6172 17.5 12.6172C18.3594 12.6172 19.1797 12.6953 19.9609 12.9297C19.9609 12.9297 21.8359 11.6016 22.6562 11.875C23.2031 13.2422 22.8516 14.2578 22.7734 14.5312C23.3984 15.2344 23.7891 15.7422 23.7891 16.8359C23.7891 20.5859 21.4844 20.8984 19.2969 21.1328C19.6484 21.4453 19.9609 22.0312 19.9609 22.9688C19.9609 24.2578 19.9219 25.8984 19.9219 26.2109C19.9219 26.4844 20.1172 26.7969 20.625 26.6797C24.5312 25.3906 27.1875 21.6797 27.1875 17.3438C27.1875 11.9531 22.7734 7.8125 17.3438 7.8125ZM11.6016 21.2891C11.5234 21.3281 11.5625 21.4453 11.6016 21.5234C11.6797 21.5625 11.7578 21.6016 11.8359 21.5625C11.875 21.5234 11.875 21.4062 11.7969 21.3281C11.7188 21.2891 11.6406 21.25 11.6016 21.2891ZM11.1719 20.9766C11.1328 21.0547 11.1719 21.0938 11.25 21.1328C11.3281 21.1719 11.4062 21.1719 11.4453 21.0938C11.4453 21.0547 11.4062 21.0156 11.3281 20.9766C11.25 20.9375 11.2109 20.9375 11.1719 20.9766ZM12.4219 22.3828C12.3828 22.4219 12.3828 22.5391 12.5 22.6172C12.5781 22.6953 12.6953 22.7344 12.7344 22.6562C12.7734 22.6172 12.7734 22.5 12.6953 22.4219C12.6172 22.3438 12.5 22.3047 12.4219 22.3828ZM11.9922 21.7969C11.9141 21.8359 11.9141 21.9531 11.9922 22.0312C12.0703 22.1094 12.1484 22.1484 12.2266 22.1094C12.2656 22.0703 12.2656 21.9531 12.2266 21.875C12.1484 21.7969 12.0703 21.7578 11.9922 21.7969Z"
          fill="white"/>
</svg>
