<svg width="35" height="35" viewBox="0 0 35 35" fill="none" xmlns="http://www.w3.org/2000/svg">
    <path d="M35 17.5C35 27.165 27.165 35 17.5 35C7.83502 35 0 27.165 0 17.5C0 7.83502 7.83502 0 17.5 0C27.165 0 35 7.83502 35 17.5Z"
          fill="#8CB9FD"/>
    <path d="M25 8.75H9.96094C9.29688 8.75 8.75 9.33594 8.75 10.0391V25C8.75 25.7031 9.29688 26.25 9.96094 26.25H25C25.6641 26.25 26.25 25.7031 26.25 25V10.0391C26.25 9.33594 25.6641 8.75 25 8.75ZM14.0234 23.75H11.4453V15.4297H14.0234V23.75ZM12.7344 14.2578C11.875 14.2578 11.2109 13.5938 11.2109 12.7734C11.2109 11.9531 11.875 11.25 12.7344 11.25C13.5547 11.25 14.2188 11.9531 14.2188 12.7734C14.2188 13.5938 13.5547 14.2578 12.7344 14.2578ZM23.75 23.75H21.1328V19.6875C21.1328 18.75 21.1328 17.5 19.8047 17.5C18.4375 17.5 18.2422 18.5547 18.2422 19.6484V23.75H15.6641V15.4297H18.125V16.5625H18.1641C18.5156 15.8984 19.375 15.1953 20.625 15.1953C23.2422 15.1953 23.75 16.9531 23.75 19.1797V23.75Z"
          fill="white"/>
</svg>
