<svg width="35" height="35" viewBox="0 0 35 35" fill="none" xmlns="http://www.w3.org/2000/svg">
    <path d="M35 17.5C35 27.165 27.165 35 17.5 35C7.83502 35 0 27.165 0 17.5C0 7.83502 7.83502 0 17.5 0C27.165 0 35 7.83502 35 17.5Z"
          fill="#50C0E3"/>
    <path d="M25.4297 13.4375C25.4297 13.6328 25.4297 13.7891 25.4297 13.9844C25.4297 19.4141 21.3281 25.625 13.7891 25.625C11.4453 25.625 9.29688 24.9609 7.5 23.7891C7.8125 23.8281 8.125 23.8672 8.47656 23.8672C10.3906 23.8672 12.1484 23.2031 13.5547 22.1094C11.7578 22.0703 10.2344 20.8984 9.72656 19.2578C10 19.2969 10.2344 19.3359 10.5078 19.3359C10.8594 19.3359 11.25 19.2578 11.5625 19.1797C9.6875 18.7891 8.28125 17.1484 8.28125 15.1562V15.1172C8.82812 15.4297 9.49219 15.5859 10.1562 15.625C9.02344 14.8828 8.32031 13.6328 8.32031 12.2266C8.32031 11.4453 8.51562 10.7422 8.86719 10.1562C10.8984 12.6172 13.9453 14.2578 17.3438 14.4531C17.2656 14.1406 17.2266 13.8281 17.2266 13.5156C17.2266 11.25 19.0625 9.41406 21.3281 9.41406C22.5 9.41406 23.5547 9.88281 24.3359 10.7031C25.2344 10.5078 26.1328 10.1562 26.9141 9.6875C26.6016 10.6641 25.9766 11.4453 25.1172 11.9531C25.9375 11.875 26.7578 11.6406 27.4609 11.3281C26.9141 12.1484 26.2109 12.8516 25.4297 13.4375Z"
          fill="white"/>
</svg>
